<?xml version="1.0" encoding="UTF-8" standalone="no"?>
<!DOCTYPE svg PUBLIC "-//W3C//DTD SVG 20010904//EN"
              "http://www.w3.org/TR/2001/REC-SVG-20010904/DTD/svg10.dtd">

<svg xmlns="http://www.w3.org/2000/svg"
     width="17.4423in" height="3.0274in"
     viewBox="0 0 1256 218">
  <path id="Selection"
        fill="none" stroke="black" stroke-width="1"
        d="M 566.98,57.14
           C 568.20,59.23 568.00,62.63 568.00,65.00
             568.00,65.00 568.00,147.00 568.00,147.00
             568.00,152.10 569.35,168.32 565.69,171.40
             563.44,173.29 559.77,172.99 557.00,173.00
             557.00,173.00 551.00,173.00 551.00,173.00
             544.76,172.97 542.97,173.30 540.64,167.15
             539.20,163.33 539.07,163.16 539.00,159.00
             539.00,159.00 539.00,102.00 539.00,102.00
             539.00,102.00 539.00,52.00 539.00,52.00
             545.94,52.00 562.94,50.24 566.98,57.14 Z
           M 290.35,61.19
           C 296.08,68.41 292.68,80.35 284.00,83.30
             278.90,85.03 271.30,84.14 267.21,80.47
             264.46,78.00 263.62,75.38 262.51,72.00
             259.99,64.27 260.19,58.92 268.00,54.74
             274.91,53.07 285.78,55.42 290.35,61.19 Z
           M 1007.35,61.19
           C 1013.08,68.41 1009.68,80.35 1001.00,83.30
             995.90,85.03 988.30,84.14 984.21,80.47
             981.46,78.00 980.62,75.38 979.51,72.00
             976.99,64.27 977.19,58.92 985.00,54.74
             991.91,53.07 1002.78,55.42 1007.35,61.19 Z
           M 82.00,58.00
           C 86.65,58.01 94.17,58.61 96.83,63.14
             98.86,66.62 98.76,79.63 95.57,82.40
             93.72,84.01 91.30,83.95 89.00,84.00
             89.00,84.00 60.00,84.00 60.00,84.00
             57.01,84.00 52.84,83.69 50.37,85.74
             47.40,88.32 46.80,97.63 50.37,99.98
             52.16,101.21 55.81,101.00 58.00,101.00
             64.03,101.01 77.33,100.23 82.42,101.99
             84.49,102.70 87.57,103.59 88.83,105.43
             90.39,107.73 90.04,114.11 90.00,117.00
             89.96,119.91 90.10,122.94 87.57,124.91
             85.09,126.85 81.01,126.96 78.00,127.00
             78.00,127.00 49.09,127.00 49.09,127.00
             48.43,131.29 46.78,142.09 49.09,145.69
             51.03,148.47 55.06,147.99 58.00,148.00
             58.00,148.00 83.00,148.00 83.00,148.00
             87.06,148.02 91.41,148.19 94.77,150.82
             98.94,154.06 99.61,167.89 95.57,171.40
             93.38,173.31 89.74,172.99 87.00,173.00
             87.00,173.00 30.00,173.00 30.00,173.00
             28.06,172.99 24.98,173.08 23.23,172.26
             18.77,170.19 18.01,161.26 18.00,157.00
             18.00,157.00 18.00,58.00 18.00,58.00
             18.00,58.00 82.00,58.00 82.00,58.00 Z
           M 446.95,117.00
           C 446.95,117.00 463.58,72.00 463.58,72.00
             466.42,64.47 466.23,58.17 475.00,58.00
             475.00,58.00 484.00,58.00 484.00,58.00
             500.00,58.27 500.08,67.58 504.81,80.00
             504.81,80.00 526.42,138.00 526.42,138.00
             526.42,138.00 536.57,166.98 536.57,166.98
             536.95,173.60 530.64,172.99 526.00,173.00
             526.00,173.00 517.00,173.00 517.00,173.00
             515.15,172.97 512.82,172.99 511.10,172.26
             504.58,169.50 504.36,157.31 500.49,153.51
             496.84,149.92 485.13,150.99 480.00,151.00
             476.15,151.01 471.45,150.69 468.42,153.51
             463.77,157.83 464.41,169.50 457.90,172.26
             455.83,173.14 452.28,173.00 450.00,173.00
             443.90,173.01 431.39,175.32 432.00,166.00
             432.00,166.00 429.00,165.00 429.00,165.00
             429.00,165.00 446.95,117.00 446.95,117.00 Z
           M 609.83,70.22
           C 611.53,73.05 611.00,81.44 611.00,85.00
             619.05,85.52 623.88,87.31 624.00,96.00
             624.04,99.05 624.50,105.02 622.26,107.26
             620.34,109.19 617.39,108.72 615.06,109.73
             610.48,111.72 611.01,115.81 611.00,120.00
             611.00,120.00 611.00,138.00 611.00,138.00
             611.01,140.67 610.67,144.32 612.58,146.42
             614.78,148.82 621.77,149.58 623.98,153.22
             625.27,155.37 625.00,159.50 625.00,162.00
             625.00,163.97 625.11,167.16 624.40,168.95
             621.93,175.17 612.46,174.06 607.00,174.00
             603.87,173.96 602.05,173.90 599.00,172.95
             577.84,166.36 582.03,136.30 582.00,119.00
             581.99,116.42 582.33,112.57 580.40,110.59
             578.04,108.18 574.93,109.74 572.68,105.79
             569.13,99.52 570.00,91.91 570.00,85.00
             570.00,85.00 582.00,85.00 582.00,85.00
             582.00,85.00 582.00,65.00 582.00,65.00
             589.14,65.00 605.56,63.17 609.83,70.22 Z
           M 959.83,70.22
           C 961.53,73.05 961.00,81.44 961.00,85.00
             969.05,85.52 973.88,87.31 974.00,96.00
             974.04,99.05 974.50,105.02 972.26,107.26
             970.34,109.19 967.39,108.72 965.06,109.73
             960.48,111.72 961.01,115.81 961.00,120.00
             961.00,120.00 961.00,138.00 961.00,138.00
             961.01,140.67 960.67,144.32 962.58,146.42
             964.78,148.82 971.77,149.58 973.98,153.22
             975.27,155.37 975.00,159.50 975.00,162.00
             975.00,163.97 975.11,167.16 974.40,168.95
             971.93,175.17 962.46,174.06 957.00,174.00
             953.87,173.96 952.05,173.90 949.00,172.95
             927.84,166.36 932.03,136.30 932.00,119.00
             931.99,116.42 932.33,112.57 930.40,110.59
             928.04,108.18 924.93,109.74 922.68,105.79
             919.13,99.52 920.00,91.91 920.00,85.00
             920.00,85.00 932.00,85.00 932.00,85.00
             932.00,85.00 932.00,65.00 932.00,65.00
             939.14,65.00 955.56,63.17 959.83,70.22 Z
           M 851.14,115.98
           C 849.14,114.81 848.53,113.18 847.68,111.16
             844.07,102.60 848.95,94.74 856.00,89.63
             868.98,80.24 889.20,81.41 903.00,88.38
             919.20,96.55 919.00,108.49 919.00,124.00
             919.00,124.00 919.00,144.00 919.00,144.00
             919.00,144.00 920.58,162.00 920.58,162.00
             920.92,164.61 921.47,168.33 919.40,170.40
             917.61,172.19 914.35,171.98 912.00,172.00
             912.00,172.00 903.00,172.00 903.00,172.00
             903.00,172.00 893.00,170.86 893.00,170.86
             893.00,170.86 884.00,173.48 884.00,173.48
             877.40,174.89 867.11,174.16 861.00,171.18
             846.59,164.16 838.40,141.99 847.85,128.00
             852.05,121.79 857.58,120.03 864.00,117.00
             860.87,117.00 853.66,117.45 851.14,115.98 Z
           M 117.91,85.06
           C 121.07,85.48 123.75,87.31 127.00,87.17
             127.00,87.17 138.00,84.30 138.00,84.30
             148.32,82.77 163.53,85.81 170.47,94.09
             175.40,99.97 176.96,107.54 177.00,115.00
             177.00,115.00 177.00,154.00 177.00,154.00
             177.00,169.60 178.50,172.85 168.00,173.00
             168.00,173.00 159.00,173.00 159.00,173.00
             149.11,172.81 148.01,165.30 148.00,157.00
             148.00,157.00 148.00,120.00 148.00,120.00
             147.96,113.85 146.58,109.10 139.00,110.24
             130.85,111.47 130.01,118.36 130.00,125.00
             130.00,125.00 130.00,162.00 130.00,162.00
             129.99,164.77 130.29,168.44 128.40,170.69
             125.78,173.80 108.75,174.08 105.43,171.83
             101.77,169.34 101.01,161.02 101.00,157.00
             101.00,157.00 101.00,85.06 101.00,85.06
             101.00,85.06 117.91,85.06 117.91,85.06 Z
           M 317.91,85.06
           C 317.91,85.06 325.59,87.01 325.59,87.01
             328.04,86.97 330.57,85.31 333.00,84.63
             338.11,83.21 348.70,84.14 352.26,88.43
             354.53,91.15 353.64,96.19 355.00,101.00
             361.72,86.78 375.87,83.84 390.00,84.00
             396.10,84.08 399.29,85.07 405.00,87.00
             422.70,93.00 431.91,105.32 432.00,124.00
             432.05,135.39 432.45,144.57 426.65,155.00
             417.71,171.08 404.93,174.20 388.00,174.00
             379.11,173.89 370.67,170.80 364.01,164.82
             351.29,153.38 346.03,129.32 350.00,113.00
             343.30,114.90 336.26,112.18 331.74,119.04
             329.73,122.08 330.01,125.53 330.00,129.00
             330.00,129.00 330.00,163.00 330.00,163.00
             329.95,170.41 328.92,172.85 321.00,173.00
             321.00,173.00 312.00,173.00 312.00,173.00
             310.27,172.97 307.81,173.00 306.23,172.26
             302.46,170.51 301.06,162.75 301.00,159.00
             301.00,159.00 301.00,85.06 301.00,85.06
             301.00,85.06 317.91,85.06 317.91,85.06 Z
           M 701.44,154.00
           C 703.23,159.78 699.36,163.73 695.00,166.78
             685.24,173.59 678.32,174.02 667.00,174.00
             647.16,173.97 634.30,163.58 628.00,145.00
             625.81,138.53 625.03,135.88 625.00,129.00
             625.00,129.00 625.00,122.00 625.00,122.00
             625.24,101.57 638.64,84.25 660.00,84.00
             672.99,83.85 687.97,87.26 696.47,98.01
             704.01,107.55 705.21,118.33 705.00,130.00
             704.95,132.73 704.97,135.47 702.69,137.40
             699.76,139.86 689.06,139.00 685.00,139.00
             690.88,143.95 698.77,145.43 701.44,154.00 Z
           M 725.91,85.06
           C 725.91,85.06 733.59,87.01 733.59,87.01
             736.83,86.96 738.80,84.61 744.00,84.10
             749.10,83.61 758.97,84.76 761.26,90.11
             762.30,92.54 762.04,100.96 761.78,104.00
             761.98,105.44 761.98,107.53 761.78,108.90
             759.26,116.51 749.35,112.42 744.02,115.17
             738.05,118.25 738.01,123.17 738.00,129.00
             738.00,129.00 738.00,162.00 738.00,162.00
             737.99,164.77 738.29,168.44 736.40,170.69
             733.78,173.80 716.75,174.08 713.43,171.83
             709.77,169.34 709.01,161.02 709.00,157.00
             709.00,157.00 709.00,85.06 709.00,85.06
             709.00,85.06 725.91,85.06 725.91,85.06 Z
           M 779.91,85.06
           C 783.07,85.48 785.75,87.31 789.00,87.17
             789.00,87.17 800.00,84.30 800.00,84.30
             810.32,82.77 825.53,85.81 832.47,94.09
             837.40,99.97 838.96,107.54 839.00,115.00
             839.00,115.00 839.00,154.00 839.00,154.00
             839.00,169.60 840.50,172.85 830.00,173.00
             830.00,173.00 821.00,173.00 821.00,173.00
             811.11,172.81 810.01,165.30 810.00,157.00
             810.00,157.00 810.00,120.00 810.00,120.00
             809.96,113.85 808.58,109.10 801.00,110.24
             792.85,111.47 792.01,118.36 792.00,125.00
             792.00,125.00 792.00,162.00 792.00,162.00
             791.99,164.77 792.29,168.44 790.40,170.69
             787.78,173.80 770.75,174.08 767.43,171.83
             763.77,169.34 763.01,161.02 763.00,157.00
             763.00,157.00 763.00,85.06 763.00,85.06
             763.00,85.06 779.91,85.06 779.91,85.06 Z
           M 1167.44,154.00
           C 1169.23,159.78 1165.36,163.73 1161.00,166.78
             1151.24,173.59 1144.32,174.02 1133.00,174.00
             1113.16,173.97 1100.30,163.58 1094.00,145.00
             1091.81,138.53 1091.03,135.88 1091.00,129.00
             1091.00,129.00 1091.00,122.00 1091.00,122.00
             1091.24,101.57 1104.64,84.25 1126.00,84.00
             1138.99,83.85 1153.97,87.26 1162.47,98.01
             1170.01,107.55 1171.21,118.33 1171.00,130.00
             1170.95,132.73 1170.97,135.47 1168.69,137.40
             1165.76,139.86 1155.06,139.00 1151.00,139.00
             1156.88,143.95 1164.77,145.43 1167.44,154.00 Z
           M 1179.79,127.91
           C 1177.81,125.34 1176.36,122.03 1175.23,119.00
             1167.41,98.05 1182.62,84.24 1203.00,84.00
             1215.61,83.86 1229.79,86.59 1238.91,96.04
             1243.14,100.42 1250.86,113.41 1241.89,117.26
             1240.01,118.07 1237.05,117.99 1235.00,118.00
             1230.99,118.02 1224.48,118.61 1221.21,116.26
             1218.23,114.12 1217.11,110.11 1212.98,108.60
             1210.27,107.61 1204.40,108.34 1204.34,112.05
             1204.28,115.56 1209.43,116.61 1212.00,117.21
             1219.11,118.85 1231.19,122.43 1237.00,126.63
             1250.20,136.20 1250.54,155.89 1237.91,166.10
             1228.53,173.68 1219.35,174.05 1208.00,174.00
             1187.12,173.90 1171.49,160.44 1171.00,139.00
             1175.54,139.00 1187.95,138.52 1191.58,139.69
             1193.66,140.37 1197.04,141.94 1198.61,143.42
             1201.88,146.50 1202.33,151.49 1209.00,150.27
             1211.02,149.91 1213.20,149.00 1214.71,147.57
             1216.08,146.27 1216.22,145.56 1217.00,144.00
             1205.65,141.44 1187.07,137.38 1179.79,127.91 Z
           M 206.58,88.99
           C 209.44,91.38 210.43,96.51 211.42,100.00
             211.42,100.00 218.00,124.00 218.00,124.00
             218.00,124.00 225.42,99.00 225.42,99.00
             226.29,95.87 227.90,87.73 230.43,86.02
             231.97,84.98 234.21,85.04 236.00,85.00
             242.76,84.88 259.13,83.44 258.76,94.00
             258.76,94.00 251.33,118.00 251.33,118.00
             251.33,118.00 240.00,151.00 240.00,151.00
             240.00,151.00 233.59,168.89 233.59,168.89
             230.72,173.53 226.81,172.99 222.00,173.00
             218.77,173.01 211.74,173.44 209.10,171.98
             204.27,169.30 201.12,156.36 199.33,151.00
             199.33,151.00 190.00,123.00 190.00,123.00
             186.68,113.05 179.47,94.52 178.00,85.00
             186.33,85.00 199.95,83.42 206.58,88.99 Z
           M 289.26,88.73
           C 291.35,90.90 291.00,95.18 291.00,98.00
             291.00,98.00 291.00,135.00 291.00,135.00
             291.00,135.00 291.00,163.00 291.00,163.00
             290.99,165.57 291.22,169.31 289.26,171.26
             287.18,173.35 282.76,173.00 280.00,173.00
             277.32,173.00 270.22,173.27 268.06,172.40
             263.53,170.58 262.07,163.35 262.00,159.00
             262.00,159.00 262.00,123.00 262.00,123.00
             262.00,123.00 262.00,85.00 262.00,85.00
             268.63,85.00 284.48,83.78 289.26,88.73 Z
           M 1006.26,88.73
           C 1008.35,90.90 1008.00,95.18 1008.00,98.00
             1008.00,98.00 1008.00,135.00 1008.00,135.00
             1008.00,135.00 1008.00,163.00 1008.00,163.00
             1007.99,165.57 1008.22,169.31 1006.26,171.26
             1004.18,173.35 999.76,173.00 997.00,173.00
             994.32,173.00 987.22,173.27 985.06,172.40
             980.53,170.58 979.07,163.35 979.00,159.00
             979.00,159.00 979.00,123.00 979.00,123.00
             979.00,123.00 979.00,85.00 979.00,85.00
             985.63,85.00 1001.48,83.78 1006.26,88.73 Z
           M 1039.58,88.99
           C 1042.44,91.38 1043.43,96.51 1044.42,100.00
             1044.42,100.00 1051.00,124.00 1051.00,124.00
             1051.00,124.00 1058.42,99.00 1058.42,99.00
             1059.29,95.87 1060.90,87.73 1063.43,86.02
             1064.97,84.98 1067.21,85.04 1069.00,85.00
             1075.76,84.88 1092.13,83.44 1091.76,94.00
             1091.76,94.00 1084.33,118.00 1084.33,118.00
             1084.33,118.00 1073.00,151.00 1073.00,151.00
             1073.00,151.00 1066.59,168.89 1066.59,168.89
             1063.72,173.53 1059.81,172.99 1055.00,173.00
             1051.77,173.01 1044.74,173.44 1042.10,171.98
             1037.27,169.30 1034.12,156.36 1032.33,151.00
             1032.33,151.00 1023.00,123.00 1023.00,123.00
             1019.68,113.05 1012.47,94.52 1011.00,85.00
             1019.33,85.00 1032.95,83.42 1039.58,88.99 Z" />
</svg>
